<svg width="29" height="29" viewBox="0 0 29 29" fill="none" xmlns="http://www.w3.org/2000/svg">
<path d="M14.5 11.09C13.8256 11.09 13.1663 11.29 12.6055 11.6647C12.0447 12.0394 11.6077 12.572 11.3496 13.195C11.0915 13.8181 11.0239 14.5038 11.1555 15.1653C11.2871 15.8267 11.6119 16.4343 12.0888 16.9112C12.5657 17.3881 13.1733 17.7129 13.8347 17.8445C14.4962 17.9761 15.1819 17.9085 15.805 17.6504C16.428 17.3923 16.9606 16.9553 17.3353 16.3945C17.71 15.8337 17.91 15.1744 17.91 14.5C17.91 14.0522 17.8218 13.6088 17.6504 13.195C17.4791 12.7813 17.2279 12.4054 16.9112 12.0888C16.5946 11.7721 16.2187 11.5209 15.805 11.3496C15.3912 11.1782 14.9478 11.09 14.5 11.09ZM28.1538 7.72125C28.1465 6.65942 27.951 5.60729 27.5763 4.61375C27.3003 3.88673 26.8732 3.2265 26.3234 2.67663C25.7735 2.12676 25.1133 1.69974 24.3863 1.42375C23.3927 1.04901 22.3406 0.853484 21.2788 0.84625C19.505 0.75 18.9825 0.75 14.5 0.75C10.0175 0.75 9.495 0.75 7.72125 0.84625C6.65942 0.853484 5.60729 1.04901 4.61375 1.42375C3.88673 1.69974 3.2265 2.12676 2.67663 2.67663C2.12676 3.2265 1.69974 3.88673 1.42375 4.61375C1.04901 5.60729 0.853484 6.65942 0.84625 7.72125C0.75 9.495 0.75 10.0175 0.75 14.5C0.75 18.9825 0.75 19.505 0.84625 21.2788C0.86105 22.3443 1.05631 23.3997 1.42375 24.4C1.69851 25.1237 2.12518 25.7801 2.675 26.325C3.22252 26.8782 3.88416 27.3052 4.61375 27.5763C5.60729 27.951 6.65942 28.1465 7.72125 28.1538C9.495 28.25 10.0175 28.25 14.5 28.25C18.9825 28.25 19.505 28.25 21.2788 28.1538C22.3406 28.1465 23.3927 27.951 24.3863 27.5763C25.1158 27.3052 25.7775 26.8782 26.325 26.325C26.8748 25.7801 27.3015 25.1237 27.5763 24.4C27.9506 23.4016 28.1461 22.345 28.1538 21.2788C28.25 19.505 28.25 18.9825 28.25 14.5C28.25 10.0175 28.25 9.495 28.1538 7.72125ZM24.6612 18.7212C24.6171 19.5698 24.436 20.4056 24.125 21.1963C23.8581 21.8558 23.4612 22.455 22.9581 22.9581C22.455 23.4612 21.8558 23.8581 21.1963 24.125C20.3981 24.4187 19.5576 24.5812 18.7075 24.6063C17.6213 24.6063 17.3325 24.6063 14.5 24.6063C11.6675 24.6063 11.3787 24.6063 10.2925 24.6063C9.44238 24.5812 8.60192 24.4187 7.80375 24.125C7.12189 23.8716 6.50613 23.4674 6.0025 22.9425C5.50429 22.4492 5.11954 21.8533 4.875 21.1963C4.58014 20.3989 4.42208 19.5575 4.4075 18.7075C4.4075 17.6213 4.4075 17.3325 4.4075 14.5C4.4075 11.6675 4.4075 11.3787 4.4075 10.2925C4.42208 9.44251 4.58014 8.60109 4.875 7.80375C5.12839 7.12189 5.53263 6.50613 6.0575 6.0025C6.55296 5.50698 7.14824 5.12263 7.80375 4.875C8.60192 4.58131 9.44238 4.41879 10.2925 4.39375C11.3787 4.39375 11.6675 4.39375 14.5 4.39375C17.3325 4.39375 17.6213 4.39375 18.7075 4.39375C19.5576 4.41879 20.3981 4.58131 21.1963 4.875C21.8781 5.12839 22.4939 5.53263 22.9975 6.0575C23.4957 6.55078 23.8805 7.14668 24.125 7.80375C24.4187 8.60192 24.5812 9.44238 24.6063 10.2925C24.6063 11.3787 24.6063 11.6675 24.6063 14.5C24.6063 17.3325 24.7025 17.6213 24.6612 18.7075V18.7212ZM22.4613 8.49125C22.2975 8.0471 22.0394 7.64376 21.7047 7.30904C21.37 6.97433 20.9666 6.71621 20.5225 6.5525C19.9126 6.34111 19.2703 6.23871 18.625 6.25C17.5525 6.25 17.25 6.25 14.5 6.25C11.75 6.25 11.4475 6.25 10.375 6.25C9.72637 6.25634 9.08397 6.37737 8.4775 6.6075C8.04015 6.76378 7.64108 7.01135 7.3068 7.33378C6.97253 7.6562 6.71071 8.04608 6.53875 8.4775C6.33907 9.08988 6.24151 9.73094 6.25 10.375C6.25 11.4475 6.25 11.75 6.25 14.5C6.25 17.25 6.25 17.5525 6.25 18.625C6.26363 19.2729 6.38443 19.9141 6.6075 20.5225C6.77121 20.9666 7.02933 21.37 7.36404 21.7047C7.69876 22.0394 8.1021 22.2975 8.54625 22.4613C9.13292 22.677 9.75027 22.7977 10.375 22.8187C11.4475 22.8187 11.75 22.8187 14.5 22.8187C17.25 22.8187 17.5525 22.8187 18.625 22.8187C19.2736 22.8124 19.916 22.6914 20.5225 22.4613C20.9666 22.2975 21.37 22.0394 21.7047 21.7047C22.0394 21.37 22.2975 20.9666 22.4613 20.5225C22.6914 19.916 22.8124 19.2736 22.8187 18.625C22.8187 17.5525 22.8187 17.25 22.8187 14.5C22.8187 11.75 22.8187 11.4475 22.8187 10.375C22.8191 9.72572 22.6979 9.08212 22.4613 8.4775V8.49125ZM14.5 19.7525C13.8109 19.7525 13.1285 19.6165 12.492 19.3524C11.8555 19.0883 11.2774 18.7012 10.7908 18.2132C10.3041 17.7253 9.91854 17.1462 9.65607 16.509C9.39361 15.8718 9.25944 15.1891 9.26125 14.5C9.26125 13.4606 9.56966 12.4445 10.1474 11.5804C10.7252 10.7164 11.5463 10.0432 12.5069 9.64602C13.4675 9.24888 14.5243 9.14567 15.5435 9.34945C16.5628 9.55324 17.4987 10.0549 18.2327 10.7908C18.9667 11.5268 19.4659 12.464 19.667 13.4837C19.8681 14.5035 19.7621 15.5601 19.3625 16.5196C18.9628 17.4791 18.2874 18.2985 17.4219 18.874C16.5563 19.4495 15.5394 19.7552 14.5 19.7525ZM20 10.2788C19.696 10.2466 19.4148 10.1031 19.2103 9.87583C19.0059 9.64861 18.8928 9.35378 18.8928 9.04812C18.8928 8.74247 19.0059 8.44763 19.2103 8.22042C19.4148 7.9932 19.696 7.84967 20 7.8175C20.304 7.84967 20.5852 7.9932 20.7897 8.22042C20.9941 8.44763 21.1072 8.74247 21.1072 9.04812C21.1072 9.35378 20.9941 9.64861 20.7897 9.87583C20.5852 10.1031 20.304 10.2466 20 10.2788Z" fill="white" fill-opacity="0.2"/>
</svg>
